<svg xmlns="http://www.w3.org/2000/svg" width="40" height="60" viewBox="0 0 40 60"><title>map-marker</title><path d="M0,0V40l9.59,2.36a7.47,7.47,0,0,1,5.16,4.46L20,60l5.25-13.21a7.47,7.47,0,0,1,5.16-4.46L40,40V0ZM35,35H5V5H35Z"/><rect x="5" y="5" width="30" height="30" fill="#01a08c"/><rect x="9" y="9" width="6" height="5" fill="#fff"/><rect x="18" y="9" width="13" height="5" fill="#fff"/><rect x="9" y="17" width="14" height="6" fill="#fff"/><rect x="26" y="17" width="5" height="6" fill="#fff"/><rect x="9" y="26" width="10" height="5" fill="#fff"/><rect x="22" y="26" width="9" height="5" fill="#fff"/></svg>